<?xml version="1.0" encoding="UTF-8" standalone="no"?>
<!-- Created with Inkscape (http://www.inkscape.org/) -->

<svg
   xmlns:dc="http://purl.org/dc/elements/1.1/"
   xmlns:cc="http://creativecommons.org/ns#"
   xmlns:rdf="http://www.w3.org/1999/02/22-rdf-syntax-ns#"
   xmlns:svg="http://www.w3.org/2000/svg"
   xmlns="http://www.w3.org/2000/svg"
   xmlns:sodipodi="http://sodipodi.sourceforge.net/DTD/sodipodi-0.dtd"
   xmlns:inkscape="http://www.inkscape.org/namespaces/inkscape"
   width="406.4754"
   height="100.39621"
   id="svg3260"
   version="1.1"
   inkscape:version="0.48.4 r9939"
   sodipodi:docname="z2pack_logo.svg">
  <defs
     id="defs3262">
    <clipPath
       clipPathUnits="userSpaceOnUse"
       id="clipPath3013">
      <rect
         style="fill:#0000ff;fill-rule:evenodd;stroke:#000000;stroke-width:2.65863657px;stroke-linecap:butt;stroke-linejoin:miter;stroke-opacity:1"
         id="rect3015"
         width="1126.9932"
         height="259.18201"
         x="-108.81651"
         y="362.95685" />
    </clipPath>
    <filter
       id="filter2988"
       inkscape:label="Invert hue"
       inkscape:menu="Color"
       inkscape:menu-tooltip="Invert hue, or rotate it"
       y="0"
       x="0"
       height="1"
       width="1"
       color-interpolation-filters="sRGB">
      <feColorMatrix
         id="feColorMatrix2990"
         type="hueRotate"
         values="180"
         result="result1" />
    </filter>
  </defs>
  <sodipodi:namedview
     id="base"
     pagecolor="#ffffff"
     bordercolor="#666666"
     borderopacity="1.0"
     inkscape:pageopacity="0.0"
     inkscape:pageshadow="2"
     inkscape:zoom="2.7429698"
     inkscape:cx="175.88445"
     inkscape:cy="10.842222"
     inkscape:document-units="px"
     inkscape:current-layer="layer1"
     showgrid="false"
     inkscape:window-width="1855"
     inkscape:window-height="1176"
     inkscape:window-x="65"
     inkscape:window-y="24"
     inkscape:window-maximized="1"
     fit-margin-top="0"
     fit-margin-left="0"
     fit-margin-right="0"
     fit-margin-bottom="0" />
  <metadata
     id="metadata3265">
    <rdf:RDF>
      <cc:Work
         rdf:about="">
        <dc:format>image/svg+xml</dc:format>
        <dc:type
           rdf:resource="http://purl.org/dc/dcmitype/StillImage" />
        <dc:title />
      </cc:Work>
    </rdf:RDF>
  </metadata>
  <g
     inkscape:label="Layer 1"
     inkscape:groupmode="layer"
     id="layer1"
     transform="translate(-94.193375,-42.200096)">
    <g
       id="g3212"
       transform="matrix(0.36166522,0,0,0.39117881,132.4297,-99.780932)"
       clip-path="url(#clipPath3013)"
       style="filter:url(#filter2988)">
      <path
         style="fill:#965051"
         d="m 759.13877,618.7285 c -11.22549,-1.08836 -24.63226,-5.06044 -34.5,-10.22144 -5.92021,-3.09638 -10.37137,-6.53219 -17.12157,-13.21597 -7.79622,-7.71952 -9.78907,-10.40753 -13.71562,-18.5 -2.52673,-5.2075 -5.5057,-13.29318 -6.61993,-17.96818 -8.70759,-36.5346 -1.28344,-71.70481 19.8977,-94.26078 21.55224,-22.95116 49.02896,-31.16924 85.55942,-25.59016 9.44616,1.44265 25.47744,6.62857 26.18416,8.47025 0.31433,0.81913 -1.58091,9.78988 -4.21164,19.93501 -3.62425,13.9765 -5.1602,18.44568 -6.33935,18.44568 -0.85591,0 -6.26018,-1.17782 -12.00948,-2.61738 -9.0882,-2.27558 -11.98219,-2.56287 -22.16118,-2.19995 -10.66024,0.38008 -12.27942,0.69879 -18.09473,3.56166 -7.39149,3.63882 -10.38007,6.50137 -15.24171,14.59898 -4.54657,7.57281 -6.62976,16.97972 -6.61129,29.8541 0.0335,23.33732 7.69608,38.07165 22.83813,43.9152 10.88971,4.20251 35.34397,3.67219 51.1349,-1.10892 3.55298,-1.07575 6.81509,-1.60079 7.24914,-1.16674 0.84769,0.84769 6.76305,33.81203 6.76305,37.68821 0,1.90119 -0.98533,2.6998 -5.34233,4.32996 -7.31361,2.73637 -19.20568,5.09256 -31.15767,6.1733 -11.44498,1.03489 -14.71551,1.01973 -26.5,-0.12283 z m -199.51265,-0.89611 c -32.55203,-2.85643 -52.09479,-16.00805 -58.1228,-39.11466 -2.40001,-9.19977 -2.2,-25.53409 0.41197,-33.64296 7.1228,-22.1128 26.55453,-34.15438 60.09501,-37.24004 11.58573,-1.06587 33.05211,-0.12956 37.67169,1.64314 1.59042,0.6103 1.70321,0.0333 1.24506,-6.36988 -0.86958,-12.15365 -7.92663,-20.86225 -18.79451,-23.193 -11.36926,-2.43827 -35.31544,-1.02463 -51.39736,3.03419 -5.93375,1.49758 -8.08584,1.69985 -8.63484,0.81155 -0.79846,-1.29193 -5.96157,-32.22118 -5.96157,-35.71237 0,-2.87942 1.73464,-3.65555 13.5,-6.04032 27.81069,-5.63707 55.70427,-6.23241 74,-1.57942 17.55247,4.46396 30.48199,14.38713 37.47807,28.76374 7.07219,14.533 7.23033,16.15492 7.74614,79.44758 0.25243,30.97436 0.18822,57.39574 -0.14268,58.71416 -0.72831,2.90182 -2.56054,3.44952 -23.08153,6.89967 -22.71417,3.81889 -47.78558,5.17804 -66.01265,3.57862 z m 39.26265,-38.63977 c 2.22355,-0.59588 2.25,-0.80666 2.25,-17.92732 0,-12.77388 -0.32833,-17.53068 -1.25,-18.10986 -0.6875,-0.43203 -7.3492,-0.95722 -14.80377,-1.16711 -19.865,-0.5593 -28.30364,1.90106 -33.69623,9.82441 -1.67289,2.45798 -2.2496,4.74285 -2.24845,8.90805 0.003,9.67153 4.22532,15.13084 13.66592,17.66826 4.95657,1.33221 31.87311,1.93166 36.08253,0.80357 z m -703.5,34.96801 c -1.86677,-0.75326 -1.53415,-3.53672 2.16062,-18.08104 l 3.364281,-13.24333 9.764926,-12.16505 c 25.55518,-31.8364 56.715066,-66.11126 96.186143,-105.80164 17.75072,-17.84933 32.27403,-32.58683 32.27403,-32.75 0,-0.16316 -21.3199,-0.29666 -47.37756,-0.29666 -36.687179,0 -47.60948,-0.28205 -48.405415,-1.25 -1.243322,-1.51202 8.178001,-40.74606 10.073716,-41.95085 1.65003,-1.04865 162.873679,-0.98131 164.529719,0.0687 1.06012,0.67218 0.52853,4.16875 -2.69621,17.73469 -3.98986,16.78466 -4.04567,16.92413 -8.36279,20.89743 -2.39037,2.2 -11.52708,10.56812 -20.30379,18.59582 -8.77672,8.02769 -27.16039,25.80269 -40.85259,39.49999 -31.75785,31.76966 -77.60508,81.67116 -77.60508,84.46769 0,0.57065 21.48627,0.9365 55,0.9365 l 55,0 0,2.39235 c 0,1.31579 -1.98656,10.63122 -4.41457,20.70095 -3.0521,12.658 -4.96288,18.70953 -6.19113,19.60765 -1.42592,1.04265 -18.46609,1.28347 -86.33543,1.2201 -46.507378,-0.0434 -85.12137,-0.30592 -85.80887,-0.58333 z m 211.48662,-0.58772 c -1.48919,-1.13116 -1.51419,-1.91549 -0.26304,-8.25 4.90546,-24.83598 17.56588,-47.00608 37.68987,-66 4.66178,-4.4 20.59217,-17.45 35.40086,-29 33.28217,-25.95834 41.4845,-32.89077 48.26319,-40.79104 12.04179,-14.03418 14.6056,-27.59034 6.88175,-36.38732 -4.44344,-5.0608 -9.82895,-7.27619 -17.70925,-7.2849 -13.03212,-0.0144 -24.97881,4.31225 -41.55252,15.04877 -6.93673,4.49366 -10.06797,6.00271 -11.07885,5.33929 -1.9332,-1.26872 -16.54101,-32.5332 -15.93657,-34.10836 0.96239,-2.50793 14.28809,-11.44252 25.06794,-16.80749 29.68575,-14.77416 63.67323,-16.40182 87,-4.16642 7.69705,4.03727 19.17131,15.48078 22.71834,22.65747 9.02565,18.26157 7.18016,44.23849 -4.41824,62.19044 -10.84189,16.78102 -22.02623,26.54875 -75.31453,65.77514 -12.94496,9.529 -32.5095,27.46214 -32.49394,29.78442 0.007,0.98197 9.98578,1.25 46.53975,1.25 39.66741,0 46.61325,0.21331 47.0863,1.44607 0.3052,0.79533 -1.54274,9.97669 -4.10653,20.40301 -4.08672,16.61975 -4.92957,19.02887 -6.83629,19.54028 -1.19617,0.32083 -34.37635,0.58948 -73.73373,0.59699 -55.72001,0.0106 -71.92312,-0.26303 -73.20451,-1.23635 z m 205.46338,0.05 c -0.91875,-0.91875 -1.2,-26.90612 -1.2,-110.87756 0,-93.89384 0.20583,-109.84837 1.43025,-110.86455 3.78828,-3.144 37.89391,-6.39714 66.56975,-6.3497 31.92791,0.0528 50.62663,3.50541 69.60379,12.85189 21.34281,10.51159 32.60034,27.41586 35.38114,53.12822 2.19274,20.27491 -1.86231,39.98032 -11.05589,53.72587 -6.07384,9.08114 -13.40044,15.16309 -25.42904,21.10913 -16.98958,8.39838 -34.78361,11.97321 -65.25,13.10876 l -18.25,0.68021 0,35.77244 c 0,31.18706 -0.20143,35.97386 -1.57143,37.34386 -1.34027,1.34027 -5.0619,1.57143 -25.3,1.57143 -17.12222,0 -24.06267,-0.3341 -24.92857,-1.2 z m 86.8,-119.84063 c 11.64837,-1.83781 18.80895,-4.76688 24.04461,-9.83558 6.15873,-5.96232 8.30659,-12.70484 7.80409,-24.49837 -0.61646,-14.46805 -6.83831,-22.36514 -21.16517,-26.86395 -6.39839,-2.00917 -9.26019,-2.25603 -26.18353,-2.25859 l -19,-0.003 -0.26385,32.25 -0.26386,32.25 14.26386,-0.008 c 7.84512,-0.004 17.18885,-0.46905 20.76385,-1.03308 z m 456.57143,119.4692 c -1.41131,-1.41131 -1.56987,-13.81692 -1.55612,-121.75 0.008,-66.09821 0.37155,-120.73957 0.80696,-121.42523 0.95219,-1.4995 46.73763,-9.02659 47.89143,-7.87333 0.4325,0.43225 1.0113,32.11201 1.2863,70.39948 l 0.5,69.61358 12.0605,-13.44653 c 6.6332,-7.3956 18.2544,-20.75892 25.8249,-29.69628 7.6412,-9.02093 14.732,-16.48612 15.9395,-16.7811 1.1963,-0.29224 13.8751,-0.40486 28.1751,-0.25025 23.25123,0.25137 26.00003,0.45342 26.00003,1.9111 0,1.96976 -26.66783,32.56793 -49.15973,56.40491 -8.9872,9.52464 -16.3403,17.70939 -16.3403,18.18835 0,0.47896 1.8549,2.64966 4.122,4.82378 5.7949,5.55726 19.9154,22.04878 29.4996,34.45295 17.2943,22.38306 36.25663,53.23689 34.22383,55.68626 -0.8498,1.02397 -6.8839,1.31374 -27.35713,1.31374 -23.6016,0 -26.4659,-0.17756 -28.2295,-1.75 -1.0795,-0.9625 -5.4699,-7.375 -9.7565,-14.25 -9.0471,-14.51014 -17.4137,-26.43305 -25.9491,-36.97913 -7.6315,-9.42921 -17.5074,-20.02087 -18.6679,-20.02087 -0.4967,0 -0.8853,15.17286 -0.8853,34.56574 0,21.9147 -0.3789,35.27368 -1.0352,36.5 -0.9761,1.82394 -2.3123,1.93426 -23.4286,1.93426 -19.02425,0 -22.62977,-0.23642 -23.96477,-1.57143 z m 546.2044,0.44892 c -13.4037,-1.40977 -24.1559,-8.80701 -29.4487,-20.26006 -2.6441,-5.72144 -2.8271,-6.95895 -2.8271,-19.11743 0,-12.50932 0.1189,-13.25105 3.1513,-19.65125 7.2267,-15.25321 21.8864,-23.06947 38.9298,-20.75662 16.0612,2.17955 26.3579,13.58083 28.356,31.39797 1.1527,10.27898 0.443,15.17298 -2.3073,15.91106 -1.1714,0.31434 -11.9173,0.57768 -23.8798,0.58519 -23.7141,0.0149 -23.8636,0.0569 -19.5786,5.50442 3.4977,4.44664 9.2024,6.46223 18.3607,6.48727 4.4176,0.0121 10.3573,-0.5812 13.1993,-1.3184 2.8419,-0.7372 5.6137,-1.06438 6.1595,-0.72708 0.9548,0.59014 3.086,11.34823 3.1015,15.65692 0.01,2.61053 -2.9971,4.03838 -11.2146,5.32591 -9.6525,1.51238 -14.6799,1.73221 -22.002,0.9621 z m 16.2242,-50.42715 c 0,-2.58666 -2.7487,-7.05569 -5.4137,-8.80184 -3.6749,-2.40788 -11.649,-2.17364 -14.9714,0.4398 -2.6083,2.05169 -5.6149,6.79701 -5.6149,8.86204 0,0.67905 4.59,1.04966 13,1.04966 11.074,0 13,-0.22958 13,-1.54966 z m -371.2028,48.81302 c -13.4837,-5.05585 -21.7212,-16.22185 -23.7127,-32.14272 -2.921,-23.35106 10.4003,-43.16345 30.9076,-45.968 15.3459,-2.09867 29.3309,3.82588 36.824,15.59992 4.8996,7.69888 6.4955,14.94527 5.9839,27.17066 -0.3891,9.29873 -0.8245,11.3751 -3.6039,17.18345 -3.6219,7.5688 -10.0109,14.01838 -17.0204,17.18151 -6.5425,2.95241 -22.677,3.48797 -29.3785,0.97518 z m 21.4953,-21.21534 c 4.0359,-3.54354 5.7094,-8.58125 5.7019,-17.16404 -0.01,-8.85471 -1.4409,-13.19086 -5.5535,-16.80171 -2.9061,-2.55158 -4.3594,-3.08227 -8.4409,-3.08227 -9.3187,0 -14.0217,6.93634 -13.978,20.61602 0.04,12.40516 5.1081,19.38398 14.0781,19.38398 3.9236,0 5.4614,-0.55412 8.1924,-2.95198 z m 46.3902,20.49184 c -1.5124,-1.51237 -1.6827,-5.19935 -1.6827,-36.42016 0,-26.23788 0.3059,-35.14364 1.25,-36.39757 1.8063,-2.39891 17.0023,-4.77947 30.7812,-4.82209 13.642,-0.0422 20.4689,1.97001 26.4755,7.80361 5.1111,4.96381 7.453,10.74624 8.5415,21.08975 1.2045,11.44529 1.1849,46.28939 -0.027,48.2066 -0.7405,1.1713 -3.1556,1.5 -11.0212,1.5 -7.8656,0 -10.2807,-0.3287 -11.0212,-1.5 -0.5278,-0.83495 -0.955,-12.04415 -0.9635,-25.28212 -0.02,-31.48451 -0.5273,-32.71788 -13.4496,-32.71788 l -6.5657,0 -0.015,28.25 c -0.01,15.5375 -0.4284,28.90289 -0.9332,29.70086 -0.6616,1.04579 -3.5378,1.56545 -10.3019,1.86129 -7.8285,0.34239 -9.6631,0.13147 -11.0669,-1.27229 z m 98.9002,-0.27898 c -6.1304,-2.06824 -11.9587,-7.51483 -13.6551,-12.76088 -1.528,-4.72495 -2.5462,-93.12992 -1.0979,-95.31815 0.4843,-0.73175 5.415,-2.04772 11.0836,-2.95811 8.9185,-1.43234 10.328,-1.45536 11.1336,-0.18185 0.5246,0.82948 0.9426,20.21213 0.9694,44.95811 0.052,48.14919 -0.2241,46.13808 6.6619,48.49385 4.5378,1.55243 4.8056,2.59506 3.084,12.00615 l -1.2806,7 -5.9909,0.20988 c -3.4891,0.12223 -8.0443,-0.48288 -10.908,-1.449 z m 31.9885,0.16769 c -1.3701,-1.37014 -1.5714,-6.1645 -1.5714,-37.42857 0,-31.26407 0.2013,-36.05843 1.5714,-37.42857 1.192,-1.19201 3.71,-1.57143 10.4286,-1.57143 6.7186,0 9.2366,0.37942 10.4286,1.57143 1.3701,1.37014 1.5714,6.1645 1.5714,37.42857 0,31.26407 -0.2013,36.05843 -1.5714,37.42857 -1.192,1.19201 -3.71,1.57143 -10.4286,1.57143 -6.7186,0 -9.2366,-0.37942 -10.4286,-1.57143 z m 42,0 c -1.3682,-1.36825 -1.5714,-6.06271 -1.5714,-36.30887 0,-26.23567 0.3059,-35.14476 1.25,-36.40172 2.0331,-2.70692 17.9608,-4.92491 32.6364,-4.54474 11.4271,0.29602 13.1497,0.59003 18.313,3.12553 3.6734,1.8039 6.7955,4.28935 8.7831,6.99208 5.3412,7.26291 6.0846,11.65523 6.7262,39.74172 0.7117,31.15461 1.5043,29.31447 -12.4086,28.80842 -6.9671,-0.25341 -9.6184,-0.72626 -10.3223,-1.84099 -0.5265,-0.83375 -0.954,-12.06319 -0.9625,-25.28212 -0.02,-31.48451 -0.5273,-32.71788 -13.4496,-32.71788 l -6.5657,0 0,28.42857 c 0,24.51082 -0.2166,28.64513 -1.5714,30 -1.192,1.19201 -3.71,1.57143 -10.4286,1.57143 -6.7186,0 -9.2366,-0.37942 -10.4286,-1.57143 z m -39.6735,-86.7085 c -4.7222,-3.16853 -6.6046,-9.09811 -4.7428,-14.94014 3.2859,-10.31056 19.4823,-12.1831 24.328,-2.81266 3.3242,6.42838 1.1101,15.64039 -4.4504,18.5158 -4.3975,2.27403 -11.1132,1.93547 -15.1348,-0.763 z"
         id="path3218"
         inkscape:connector-curvature="0" />
      <path
         style="fill:#730101"
         d="m 753.6227,616.37873 c -33.62323,-5.2276 -57.07185,-26.06672 -64.87132,-57.65206 -7.03235,-28.47873 -3.50822,-58.16235 9.53897,-80.34628 5.61914,-9.55413 19.19589,-22.84816 28.85272,-28.2519 15.30415,-8.56384 31.79318,-12.03612 52.04075,-10.95879 17.03819,0.90656 37.95495,6.5451 37.95495,10.23152 0,2.30659 -8.044,33.75627 -8.85074,34.60376 -0.35709,0.37514 -4.47426,-0.43102 -9.14926,-1.79147 -20.71154,-6.02717 -41.76472,-3.44227 -52.37937,6.43111 -4.28547,3.98618 -9.21957,12.08614 -11.75158,19.29172 -3.04224,8.6576 -3.33035,31.13984 -0.51755,40.38657 4.39085,14.43438 12.08188,23.00383 24.01349,26.75614 6.12998,1.92779 9.17747,2.22679 21.63501,2.12264 12.07242,-0.10093 16.09048,-0.54413 24,-2.64728 5.225,-1.38934 9.78695,-2.23479 10.13767,-1.87878 0.35071,0.356 1.99076,8.52228 3.64455,18.14728 2.32577,13.5359 2.73855,17.78413 1.82227,18.75434 -1.64252,1.73921 -18.26866,5.81882 -29.10449,7.14147 -11.45216,1.39787 -26.74157,1.25744 -37.01607,-0.33999 z m -194.48393,-0.12218 c -1.375,-0.24197 -5.875,-0.9391 -10,-1.54917 -32.35616,-4.78536 -49.81124,-25.60623 -47.68632,-56.88149 0.6835,-10.06001 2.72639,-16.58396 7.44179,-23.76527 11.6179,-17.69349 38.36189,-26.78905 72.74453,-24.74022 7.15,0.42606 14.8,0.82592 17,0.88858 l 4,0.11393 0.30943,-4.28964 c 0.70984,-9.84032 -5.33542,-20.90892 -13.74122,-25.15957 -10.65,-5.3855 -37.30605,-5.18993 -59.00527,0.4329 -3.4563,0.89562 -6.49201,1.42057 -6.74603,1.16656 -0.90848,-0.90848 -6.16965,-35.16371 -5.50023,-35.81176 0.89414,-0.8656 17.27293,-4.28792 28.68332,-5.99334 5.19909,-0.77706 16.81298,-1.32109 27.5,-1.28819 15.49295,0.0477 19.91674,0.40906 27.21604,2.22318 23.89531,5.93878 37.61305,19.14058 43.3503,41.71986 1.5796,6.21661 1.82191,13.53471 2.16517,65.39099 0.21719,32.81096 0.002,58.77592 -0.49217,59.26967 -1.00303,1.00303 -16.97394,4.23469 -31.73934,6.42235 -9.55184,1.41521 -50.26073,2.77264 -55.5,1.85063 z m 42.44957,-36.39179 c 1.29492,-1.07468 1.55043,-4.23704 1.55043,-19.18905 l 0,-17.9023 -2.75,-1.13894 c -1.60169,-0.66335 -9.0135,-1.17497 -17.75,-1.22525 -12.2049,-0.0702 -15.99529,0.26041 -20.34126,1.77437 -9.61268,3.34867 -15.15874,10.1018 -15.15874,18.45798 0,10.61183 6.39581,17.65621 18.34375,20.20388 6.31234,1.34599 34.21555,0.5881 36.10582,-0.98069 z m -705.44957,31.46237 c 0,-4.01608 6.513265,-27.3723 8.363591,-29.9914 4.216327,-5.96811 26.324079,-32.39699 40.414833,-48.31422 21.626575,-24.42985 43.856216,-47.80921 72.093966,-75.82266 14.72643,-14.60945 25.08648,-25.63347 24.69099,-26.2734 -0.48114,-0.77849 -14.72264,-1.10254 -48.45573,-1.10254 -26.275874,0 -48.002398,-0.22808 -48.281164,-0.50685 -0.278767,-0.27876 1.581571,-9.16626 4.134083,-19.75 l 4.640932,-19.24315 80.893289,-0.25596 c 44.49131,-0.14077 81.23047,0.0842 81.64256,0.5 0.4121,0.41578 -0.96687,7.88407 -3.06437,16.5962 l -3.81364,15.84023 -5.37967,4.65734 C 67.36507,459.39264 1.06089,526.90181 -30.056768,564.17257 c -3.892401,4.66207 -4.647985,6.13396 -3.721751,7.25 0.970214,1.16904 10.144079,1.40034 55.539729,1.40034 49.11062,0 54.37756,0.1545 54.37756,1.59516 0,1.43795 -5.56094,25.31998 -8.06939,34.65484 l -1.0077,3.75 -85.46145,0 c -75.191842,0 -85.46146,-0.17974 -85.46146,-1.49578 z m 211.61368,0.67972 c -0.68239,-1.10414 1.85887,-13.0546 4.50203,-21.1711 2.88271,-8.85213 10.94354,-24.1909 16.87521,-32.1115 10.69428,-14.28013 19.37818,-21.94468 65.5929,-57.8934 24.66373,-19.185 37.81577,-31.9496 42.26175,-41.01678 5.98047,-12.19662 5.21307,-22.36137 -2.22854,-29.51852 -4.85174,-4.66628 -9.96869,-6.47862 -18.23305,-6.45786 -12.3481,0.031 -26.62484,5.30342 -41.92202,15.48182 -4.54911,3.02687 -8.56589,5.5034 -8.92619,5.5034 -0.6817,0 -15.53577,-30.57941 -15.53577,-31.9828 0,-1.19985 16.60448,-12.30792 23.83468,-15.94494 14.62857,-7.35863 35.002,-12.05459 52.34994,-12.06637 29.37721,-0.0199 52.94058,16.01343 59.4486,40.45098 2.79022,10.47729 1.01167,30.20703 -3.71761,41.24 -7.25301,16.92058 -27.74417,36.61334 -67.91561,65.2694 -18.10376,12.9142 -27.60388,20.60022 -36.27687,29.34958 -7.72358,7.79159 -10.17588,11.14256 -9.25031,12.64017 0.43344,0.70132 16.05268,1.04398 47.5862,1.04398 36.91068,0 46.93114,0.2671 46.89492,1.25 -0.0253,0.6875 -1.95693,9.125 -4.29245,18.75 l -4.24639,17.5 -73.14453,0.25647 c -40.2295,0.14106 -73.37509,-0.11658 -73.65689,-0.57253 z m 205.63194,-109.40338 0.25438,-110.21944 7.36716,-1.23348 c 24.82062,-4.15571 73.94042,-5.25795 92.14473,-2.06772 31.15891,5.46046 52.49745,17.65662 61.71792,35.27519 5.91289,11.29841 7.70612,20.02163 7.70167,37.46489 -0.005,17.93755 -1.23311,23.99299 -7.43564,36.65033 -7.47789,15.25994 -22.89162,26.63946 -44.48395,32.84125 -14.05769,4.03768 -26.38155,5.6718 -48.01189,6.36628 l -20,0.64214 -0.26217,37.25 -0.26217,37.25 -24.49222,0 -24.49221,0 0.25439,-110.21944 z m 83.30385,-6.85072 c 15.70491,-2.18436 26.04156,-6.92045 30.98646,-14.19753 5.83141,-8.58169 6.951,-24.14049 2.48183,-34.48959 -3.66241,-8.48092 -12.32301,-14.61332 -24.51776,-17.36056 -6.39259,-1.44013 -38.61182,-1.9522 -41.75,-0.66355 -1.61659,0.66384 -1.75,3.22403 -1.75,33.58334 0,18.07559 0.3,33.16472 0.66667,33.53138 1.06186,1.06187 25.43395,0.77163 33.8828,-0.40349 z m 459.69653,-4.16511 0.254,-121.23526 22.3474,-3.59258 c 15.0571,-2.42056 22.4793,-3.24094 22.7515,-2.51473 0.2222,0.59281 0.5158,32.12171 0.6525,70.06422 0.2178,60.43668 0.4345,69.01197 1.7486,69.19283 1.5799,0.21745 16.5895,-16.27741 39.5187,-43.42921 l 13.7229,-16.25 26.8792,0 c 14.7836,0 26.87923,0.27293 26.87923,0.6065 0,1.09405 -28.81253,33.49035 -47.34553,53.23446 -9.985,10.63753 -18.3102,19.76726 -18.5006,20.2883 -0.1904,0.52103 2.9689,4.4176 7.0206,8.65903 14.8432,15.53843 33.6844,39.58303 46.0061,58.71171 6.55403,10.17463 15.81943,25.96121 15.81943,26.95341 0,0.30062 -12.1034,0.54659 -26.89653,0.54659 l -26.8965,0 -4.7813,-7.75 c -20.3704,-33.01814 -47.2546,-66.68086 -51.8463,-64.91883 -1.3988,0.53674 -1.5794,4.7272 -1.5794,36.63745 l 0,36.03138 -23.004,0 -23.004,0 0.254,-121.23527 z m 196.25403,120.2012 c -19.1118,-3.89375 -30.941,-23.22591 -27.5571,-45.03581 2.5947,-16.72351 13.157,-28.07137 28.7424,-30.88 15.957,-2.87561 32.3246,5.47559 38.3692,19.57696 4.7779,11.14634 4.57,26.93549 -0.5006,38.0283 -6.3467,13.88437 -22.8349,21.61493 -39.0539,18.31055 z m 15.5151,-18.21593 c 5.5949,-3.80215 7.4849,-8.78913 7.4849,-19.75 0,-7.68756 -0.3982,-10.26313 -2.087,-13.5 -5.9776,-11.45687 -21.1627,-11.44942 -26.913,0.0132 -2.9168,5.81431 -2.8668,21.3255 0.087,26.9868 2.8962,5.55091 7.5498,8.5 13.413,8.5 3.2308,0 5.7413,-0.70474 8.0151,-2.25 z m 331.5792,18.24165 c -6.7033,-1.18933 -16.8943,-6.37452 -20.1924,-10.27392 -6.8867,-8.14215 -10.4173,-22.20002 -8.5645,-34.101 3.0439,-19.55168 16.2528,-31.92268 34.1626,-31.99541 14.1196,-0.0573 25.1801,6.39622 29.9448,17.47206 2.4826,5.77079 4.6895,20.2434 3.6926,24.2153 l -0.6755,2.69132 -23.5123,0 c -26.3162,0 -26.1853,-0.0387 -22.7512,6.74008 1.3663,2.69698 3.4451,4.56055 7.3532,6.59195 5.847,3.03923 4.4184,2.97048 28.9484,1.39304 l 3.5,-0.22507 0.8725,6.79421 c 0.4798,3.73681 0.6131,7.05356 0.2961,7.37056 -2.4745,2.4745 -25.0689,4.74723 -33.0743,3.32688 z m 20.0449,-46.49389 c 0.978,-2.54861 -0.5507,-6.43059 -4.0256,-10.22232 -2.9751,-3.24642 -3.9421,-3.66666 -9.2187,-4.00629 -7.3872,-0.47549 -11.4886,1.81182 -14.5509,8.11509 -3.55,7.30688 -3.0164,7.61576 13.156,7.61576 11.5871,0 14.1643,-0.26447 14.6392,-1.50224 z M 1220.9294,610.742 c -10.4851,-1.53716 -17.8921,-7.12013 -19.5008,-14.69853 -0.4344,-2.04631 -0.7898,-23.73517 -0.7898,-48.19747 l 0,-44.47692 7,-1.21163 c 3.85,-0.6664 8.2375,-1.23929 9.75,-1.27309 l 2.75,-0.0615 0.015,43.25 c 0.011,32.28334 0.328,43.88391 1.25,45.75 0.6794,1.375 3.163,3.4 5.5191,4.5 l 4.2839,2 -0.6289,5.43493 c -0.7022,6.06818 -1.9939,10.12731 -3.164,9.94313 -0.4262,-0.0671 -3.344,-0.49861 -6.4842,-0.95897 z m -105.0891,-0.5509 c -0.3858,-0.38584 -0.7015,-16.38766 -0.7015,-35.55961 l 0,-34.85808 2.25,-0.84875 c 5.0308,-1.89771 17.8871,-3.46513 28.25,-3.44417 13.7692,0.0279 20.5867,2.28918 26.0128,8.62838 6.1845,7.22523 6.9605,11.75523 6.9747,40.71404 l 0.013,25.5 -9.5,0 -9.5,0 -0.5,-25.5 c -0.5297,-27.01284 -0.7137,-28.05641 -5.6285,-31.92245 -2.0815,-1.63685 -4.072,-2.07755 -9.3844,-2.07755 -4.399,0 -7.1273,0.46346 -7.8493,1.33336 -0.737,0.888 -1.1954,10.8247 -1.3724,29.75 l -0.2659,28.41664 -9.0485,0.28486 c -4.9766,0.15667 -9.3641,-0.0308 -9.75,-0.41667 z m 130.7685,-0.58568 c -0.2729,-0.71114 -0.3778,-17.26563 -0.2331,-36.78775 l 0.2631,-35.49476 9.5,0 9.5,0 0,36.5 0,36.5 -9.2669,0.28775 c -6.8691,0.21329 -9.3953,-0.0468 -9.7631,-1.00524 z m 42.2315,0.58568 c -0.3858,-0.38584 -0.7015,-16.38766 -0.7015,-35.55961 l 0,-34.85808 2.5697,-0.97699 c 4.9751,-1.89154 17.0486,-3.3213 27.9303,-3.30757 13.7677,0.0174 20.5821,2.27554 26.0128,8.62002 6.1845,7.22523 6.9605,11.75523 6.9747,40.71404 l 0.013,25.5 -9.5,0 -9.5,0 -0.5,-25.5 c -0.5297,-27.01284 -0.7137,-28.05641 -5.6285,-31.92245 -2.0757,-1.63274 -4.0575,-2.07427 -9.2564,-2.06224 -3.6383,0.008 -7.1706,0.36813 -7.8494,0.79934 -0.9223,0.58582 -1.3015,8.10262 -1.5,29.73469 l -0.2662,28.95066 -9.0485,0.28486 c -4.9766,0.15667 -9.3641,-0.0308 -9.75,-0.41667 z m -37.2015,-85.73172 c -5.0268,-2.28421 -7,-5.28245 -7,-10.63647 0,-13.95604 19.9814,-15.74371 22.9876,-2.05663 1.8663,8.4976 -7.9935,16.32567 -15.9876,12.6931 z"
         id="path3216"
         inkscape:connector-curvature="0" />
      <path
         style="fill:#010101"
         d="m 753.6227,616.37873 c -33.62323,-5.2276 -57.07185,-26.06672 -64.87132,-57.65206 -7.03235,-28.47873 -3.50822,-58.16235 9.53897,-80.34628 5.61914,-9.55413 19.19589,-22.84816 28.85272,-28.2519 15.30415,-8.56384 31.79318,-12.03612 52.04075,-10.95879 17.03819,0.90656 37.95495,6.5451 37.95495,10.23152 0,2.30659 -8.044,33.75627 -8.85074,34.60376 -0.35709,0.37514 -4.47426,-0.43102 -9.14926,-1.79147 -20.71154,-6.02717 -41.76472,-3.44227 -52.37937,6.43111 -4.28547,3.98618 -9.21957,12.08614 -11.75158,19.29172 -3.04224,8.6576 -3.33035,31.13984 -0.51755,40.38657 4.39085,14.43438 12.08188,23.00383 24.01349,26.75614 6.12998,1.92779 9.17747,2.22679 21.63501,2.12264 12.07242,-0.10093 16.09048,-0.54413 24,-2.64728 5.225,-1.38934 9.78695,-2.23479 10.13767,-1.87878 0.35071,0.356 1.99076,8.52228 3.64455,18.14728 2.32577,13.5359 2.73855,17.78413 1.82227,18.75434 -1.64252,1.73921 -18.26866,5.81882 -29.10449,7.14147 -11.45216,1.39787 -26.74157,1.25744 -37.01607,-0.33999 z m -194.48393,-0.12218 c -1.375,-0.24197 -5.875,-0.9391 -10,-1.54917 -32.35616,-4.78536 -49.81124,-25.60623 -47.68632,-56.88149 0.6835,-10.06001 2.72639,-16.58396 7.44179,-23.76527 11.6179,-17.69349 38.36189,-26.78905 72.74453,-24.74022 7.15,0.42606 14.8,0.82592 17,0.88858 l 4,0.11393 0.30943,-4.28964 c 0.70984,-9.84032 -5.33542,-20.90892 -13.74122,-25.15957 -10.65,-5.3855 -37.30605,-5.18993 -59.00527,0.4329 -3.4563,0.89562 -6.49201,1.42057 -6.74603,1.16656 -0.90848,-0.90848 -6.16965,-35.16371 -5.50023,-35.81176 0.89414,-0.8656 17.27293,-4.28792 28.68332,-5.99334 5.19909,-0.77706 16.81298,-1.32109 27.5,-1.28819 15.49295,0.0477 19.91674,0.40906 27.21604,2.22318 23.89531,5.93878 37.61305,19.14058 43.3503,41.71986 1.5796,6.21661 1.82191,13.53471 2.16517,65.39099 0.21719,32.81096 0.002,58.77592 -0.49217,59.26967 -1.00303,1.00303 -16.97394,4.23469 -31.73934,6.42235 -9.55184,1.41521 -50.26073,2.77264 -55.5,1.85063 z m 42.44957,-36.39179 c 1.29492,-1.07468 1.55043,-4.23704 1.55043,-19.18905 l 0,-17.9023 -2.75,-1.13894 c -1.60169,-0.66335 -9.0135,-1.17497 -17.75,-1.22525 -12.2049,-0.0702 -15.99529,0.26041 -20.34126,1.77437 -9.61268,3.34867 -15.15874,10.1018 -15.15874,18.45798 0,10.61183 6.39581,17.65621 18.34375,20.20388 6.31234,1.34599 34.21555,0.5881 36.10582,-0.98069 z m -288.20395,-77.26129 0.25438,-110.21944 7.36716,-1.23348 c 24.82062,-4.15571 73.94042,-5.25795 92.14473,-2.06772 31.15891,5.46046 52.49745,17.65662 61.71792,35.27519 5.91289,11.29841 7.70612,20.02163 7.70167,37.46489 -0.005,17.93755 -1.23311,23.99299 -7.43564,36.65033 -7.47789,15.25994 -22.89162,26.63946 -44.48395,32.84125 -14.05769,4.03768 -26.38155,5.6718 -48.01189,6.36628 l -20,0.64214 -0.26217,37.25 -0.26217,37.25 -24.49222,0 -24.49221,0 0.25439,-110.21944 z m 83.30385,-6.85072 c 15.70491,-2.18436 26.04156,-6.92045 30.98646,-14.19753 5.83141,-8.58169 6.951,-24.14049 2.48183,-34.48959 -3.66241,-8.48092 -12.32301,-14.61332 -24.51776,-17.36056 -6.39259,-1.44013 -38.61182,-1.9522 -41.75,-0.66355 -1.61659,0.66384 -1.75,3.22403 -1.75,33.58334 0,18.07559 0.3,33.16472 0.66667,33.53138 1.06186,1.06187 25.43395,0.77163 33.8828,-0.40349 z m 459.69653,-4.16511 0.254,-121.23526 22.3474,-3.59258 c 15.0571,-2.42056 22.4793,-3.24094 22.7515,-2.51473 0.2222,0.59281 0.5158,32.12171 0.6525,70.06422 0.2178,60.43668 0.4345,69.01197 1.7486,69.19283 1.5799,0.21745 16.5895,-16.27741 39.5187,-43.42921 l 13.7229,-16.25 26.8792,0 c 14.7836,0 26.87923,0.27293 26.87923,0.6065 0,1.09405 -28.81253,33.49035 -47.34553,53.23446 -9.985,10.63753 -18.3102,19.76726 -18.5006,20.2883 -0.1904,0.52103 2.9689,4.4176 7.0206,8.65903 14.8432,15.53843 33.6844,39.58303 46.0061,58.71171 6.55403,10.17463 15.81943,25.96121 15.81943,26.95341 0,0.30062 -12.1034,0.54659 -26.89653,0.54659 l -26.8965,0 -4.7813,-7.75 c -20.3704,-33.01814 -47.2546,-66.68086 -51.8463,-64.91883 -1.3988,0.53674 -1.5794,4.7272 -1.5794,36.63745 l 0,36.03138 -23.004,0 -23.004,0 0.254,-121.23527 z"
         id="path3214"
         inkscape:connector-curvature="0" />
    </g>
  </g>
</svg>
