<?xml version="1.0" encoding="UTF-8" standalone="no"?>
<!-- Created with Inkscape (http://www.inkscape.org/) -->

<svg
   xmlns:dc="http://purl.org/dc/elements/1.1/"
   xmlns:cc="http://creativecommons.org/ns#"
   xmlns:rdf="http://www.w3.org/1999/02/22-rdf-syntax-ns#"
   xmlns:svg="http://www.w3.org/2000/svg"
   xmlns="http://www.w3.org/2000/svg"
   xmlns:sodipodi="http://sodipodi.sourceforge.net/DTD/sodipodi-0.dtd"
   xmlns:inkscape="http://www.inkscape.org/namespaces/inkscape"
   width="406.4754"
   height="100.39621"
   id="svg3260"
   version="1.1"
   inkscape:version="0.48.5 r10040"
   sodipodi:docname="z2pack_logo.svg"
   inkscape:export-filename="/media/Data/programming/Z2Pack/doc/source/z2pack_logo.png"
   inkscape:export-xdpi="90"
   inkscape:export-ydpi="90">
  <defs
     id="defs3262">
    <clipPath
       clipPathUnits="userSpaceOnUse"
       id="clipPath3013">
      <rect
         style="fill:#0000ff;fill-rule:evenodd;stroke:#000000;stroke-width:2.65863657px;stroke-linecap:butt;stroke-linejoin:miter;stroke-opacity:1"
         id="rect3015"
         width="1126.9932"
         height="259.18201"
         x="-108.81651"
         y="362.95685" />
    </clipPath>
    <filter
       id="filter2988"
       inkscape:label="Invert hue"
       inkscape:menu="Color"
       inkscape:menu-tooltip="Invert hue, or rotate it"
       y="0"
       x="0"
       height="1"
       width="1"
       color-interpolation-filters="sRGB">
      <feColorMatrix
         id="feColorMatrix2990"
         type="hueRotate"
         values="180"
         result="result1" />
    </filter>
  </defs>
  <sodipodi:namedview
     id="base"
     pagecolor="#ffffff"
     bordercolor="#666666"
     borderopacity="1.0"
     inkscape:pageopacity="0.0"
     inkscape:pageshadow="2"
     inkscape:zoom="16"
     inkscape:cx="175.88445"
     inkscape:cy="33.234308"
     inkscape:document-units="px"
     inkscape:current-layer="g3212"
     showgrid="false"
     inkscape:window-width="1855"
     inkscape:window-height="1176"
     inkscape:window-x="65"
     inkscape:window-y="24"
     inkscape:window-maximized="1"
     fit-margin-top="0"
     fit-margin-left="0"
     fit-margin-right="0"
     fit-margin-bottom="0" />
  <metadata
     id="metadata3265">
    <rdf:RDF>
      <cc:Work
         rdf:about="">
        <dc:format>image/svg+xml</dc:format>
        <dc:type
           rdf:resource="http://purl.org/dc/dcmitype/StillImage" />
        <dc:title></dc:title>
      </cc:Work>
    </rdf:RDF>
  </metadata>
  <g
     inkscape:label="Layer 1"
     inkscape:groupmode="layer"
     id="layer1"
     transform="translate(-94.193375,-42.200096)">
    <g
       id="g3212"
       transform="matrix(0.36166522,0,0,0.39117881,132.4297,-99.780932)"
       clip-path="url(#clipPath3013)"
       style="filter:url(#filter2988)">
      <path
         style="fill:#965051"
         d="m 900.375,360.15625 c -15.48805,1.97697 -31.36127,3.78625 -46.375,8.125 -2.86336,4.66955 -0.47187,11.51328 -1.40625,16.90625 -0.42178,73.67363 -0.93666,147.36359 0.125,221.03125 -0.16703,4.21393 0.30426,10.40949 5.96875,10.125 14.4108,0.52859 29.03945,1.14032 43.375,-0.25 5.65935,-2.13131 2.82697,-10.07118 3.83068,-14.65608 0.45935,-18.5804 -0.0401,-37.1776 0.73182,-55.75017 20.06103,19.7929 34.7294,44.33574 50.25,67.53125 4.36667,5.39661 12.61109,2.67932 18.62497,3.57255 13.26987,-0.55514 26.94593,1.24762 40.00003,-1.2288 4.1388,-3.30137 -1.0342,-8.88561 -2.3125,-12.46875 -17.21801,-30.7301 -39.19865,-59.08834 -63.625,-84.4375 21.471,-24.48191 45.23895,-47.35856 64.7813,-73.53125 1.3803,-5.1267 -5.9523,-4.58293 -9.1876,-4.75 -15.86998,-0.11905 -31.96602,-1.13491 -47.7187,0.1875 -13.4172,11.6357 -23.59016,26.6237 -35.77974,39.61324 -4.97106,5.65854 -10.04948,11.22339 -15.06401,16.85551 -0.64369,-45.13263 0.0813,-90.37484 -1.84375,-135.4375 -0.49533,-1.90601 -2.89464,-1.48222 -4.375,-1.4375 z m -678.0625,20.875 c -27.16338,0.62805 -53.72158,11.43377 -74.375,28.59375 -3.60027,4.06994 1.73061,9.27921 2.64647,13.51934 4.16817,8.27295 7.2112,17.50935 12.88478,24.82441 5.48136,1.46083 10.10264,-4.28444 14.75,-6.375 13.97136,-8.90628 31.32862,-17.22991 48.21875,-12.1875 9.44886,3.52728 13.43739,15.09303 9.15625,24.0625 -8.50802,20.27732 -28.75611,31.86008 -44.82289,45.67054 -25.41307,20.84282 -54.65412,38.94739 -71.55211,67.92321 -7.97692,13.73331 -14.10895,29.13704 -15.4375,45.0625 1.27883,5.80005 8.90196,3.52527 13.09357,4.30048 45.84004,0.52208 91.76344,0.7416 137.56268,-0.30048 5.3583,-2.73525 4.62318,-10.52234 6.75,-15.375 1.73471,-9.07145 5.49371,-18.171 5.34375,-27.375 -3.74248,-3.82997 -10.50728,-1.4881 -15.34366,-2.39405 -25.45605,-0.58565 -51.74528,0.55874 -76.71884,-0.85595 29.27989,-30.96129 69.02172,-50.31492 97.78118,-81.72336 18.56879,-19.91653 24.77049,-51.6099 12.46882,-76.30789 -8.94689,-14.46599 -23.46147,-25.75106 -40.3125,-28.9375 -7.24279,-1.61911 -14.66759,-2.30501 -22.09375,-2.125 z m 151.375,2.53125 c -20.30967,0.77177 -41.19978,0.70349 -60.84375,5.875 -4.97599,2.45559 -2.28261,9.71201 -3.27836,14.15585 -0.60748,68.06689 -0.7763,136.15485 0.18461,204.21915 -0.2247,3.67074 0.13621,9.06367 5.125,8.46875 15.47315,0.59434 31.16894,1.25022 46.5625,-0.28125 6.21702,-1.73814 3.71616,-10.2003 4.5625,-14.90625 0.25884,-19.67541 0.064,-39.35442 0.125,-59.03125 31.23566,-0.89132 64.80223,-1.54418 91.71875,-19.15625 21.85663,-13.50742 30.27688,-41.12513 28.71875,-65.8125 -0.59694,-21.45512 -9.53936,-43.83161 -28.28125,-55.53125 -24.85404,-16.35367 -55.6017,-18.45081 -84.59375,-18 z M 5.78125,385.90625 c -17.786878,0.40852 -35.742228,-0.50435 -53.4375,0.96875 -4.821856,7.95603 -5.48487,18.03007 -8.18568,26.94494 -0.801702,5.85582 -3.7062,12.0061 -2.50182,17.96131 5.887376,3.16703 13.414695,1.05748 19.874972,1.91377 24.343148,0.23231 48.688459,0.0178 73.031278,0.30498 -47.138376,47.5283 -94.784271,95.15901 -135.59375,148.34375 -1.87292,10.41404 -6.72057,20.60039 -6.5,31.25 2.03391,5.00192 9.084969,1.67408 13.031047,2.81613 52.869702,0.18809 105.767674,0.98224 158.622913,-0.32127 4.679176,0.80146 7.001623,-3.46469 7.72104,-7.36986 3.225444,-12.45474 7.331731,-25.03341 8.28125,-37.90625 -1.89378,-4.43955 -11.834581,-0.83209 -17,-2 -30.304379,-0.28012 -61.8277738,0.6582 -91.40625,-0.78125 C 7.020064,526.6753 45.396122,487.63836 84.984565,450.10271 93.732104,441.26738 104.24878,433.90791 112.125,424.375 c 4.26431,-10.509 6.20685,-22.14838 8.3125,-33.25 1.06186,-5.27635 -5.31835,-4.9622 -8.84334,-4.75915 C 76.327136,385.79436 41.051793,385.8519 5.78125,385.90625 z M 383.625,432.3125 c 13.96257,-0.31594 30.41794,-0.25776 40.34375,11.21875 6.39745,9.1637 6.43657,22.07443 2.75,32.21875 -7.15446,14.3258 -25.06739,16.43837 -39.375,16.875 -7.06968,0.27632 -14.14572,0.16568 -21.21875,0.1875 0.16667,-20.16667 0.33333,-40.33333 0.5,-60.5 5.66667,0 11.33333,0 17,0 z m 386.28125,3 c -28.1267,-0.3647 -55.54212,13.73174 -71.48546,36.75268 -19.66936,28.43638 -21.25241,66.89029 -9.38954,98.74732 4.19466,12.54615 12.84563,22.96191 22.9375,31.40625 18.44351,15.42165 43.9027,20.19546 67.49705,19.14205 14.49655,-1.4279 29.978,-2.38174 42.9717,-9.2358 4.02722,-4.47137 -0.23785,-11.14935 -0.0539,-16.37796 -1.84941,-8.84047 -2.54886,-18.0903 -5.50856,-26.59079 -6.019,-2.04482 -12.00778,2.6062 -18.07576,2.81385 -14.7389,1.99835 -31.24954,3.97119 -44.92424,-2.68885 -15.67614,-8.57791 -18.40748,-28.64814 -17.625,-44.875 0.10522,-15.85602 7.54874,-33.77021 23.5,-39.375 9.68968,-2.92778 20.40155,-2.61232 30.3125,-1.21875 6.38713,0.95689 12.79499,4.02321 19.3125,3.8125 4.84543,-5.18041 4.72074,-13.32838 7.1875,-19.75 1.14631,-7.12379 4.84465,-14.47981 3.875,-21.65625 -7.20395,-5.45251 -17.00538,-6.64144 -25.625,-8.90625 -8.21541,-1.36744 -16.53867,-2.17122 -24.90625,-2 z m -199.75,0.0625 c -17.85238,0.68049 -35.96784,2.49365 -53,7.875 -5.831,3.06501 -1.54412,10.79256 -1.60114,15.67636 1.80855,8.73478 2.08727,18.13277 5.22614,26.41739 5.53049,2.7823 11.86628,-1.86744 17.67078,-1.99459 15.34145,-2.19523 31.71967,-4.68293 46.89172,-0.38041 9.83237,3.56896 14.25631,14.60706 13.75,24.25 -24.27318,-3.50637 -50.39266,-2.80928 -73,7.5625 -16.98598,7.73093 -28.56375,25.5948 -28.21875,44.34375 -1.37739,17.75615 4.9101,36.72986 19.8125,47.125 22.01445,15.46379 50.68071,14.92663 76.52957,13.62963 17.83134,-1.43538 35.83423,-3.32192 53.09543,-8.12963 6.05196,-2.84366 2.65827,-11.2177 3.66056,-16.37499 -0.25221,-35.314 0.61366,-70.70705 -1.63846,-105.96345 -2.01098,-22.02281 -17.54857,-42.19499 -38.67835,-48.97406 -12.9606,-4.45514 -26.86067,-5.34261 -40.5,-5.0625 z m 647.78125,61.59375 c -6.8407,1.20269 -14.7618,0.99789 -20.6875,4.90625 -1.9193,14.23098 -0.5696,28.92164 -0.8937,43.31226 0.6136,18.06859 -0.3296,36.41877 2.0187,54.31274 4.5212,11.32882 17.7302,16.41761 29.3417,14.92138 7.0883,1.85165 5.0567,-6.92298 6.6039,-11.40777 1.5461,-4.49391 0.5821,-10.76708 -4.8831,-11.60736 -6.0952,-0.57099 -4.4047,-8.3313 -5.0313,-12.5625 -0.8439,-26.5538 0.6887,-53.29882 -1.375,-79.75 -0.8656,-1.97065 -3.1832,-2.29523 -5.0937,-2.125 z M 1255.75,498.75 c -9.9733,-0.15806 -17.9043,10.51992 -14.4375,20 3.5819,12.89082 25.4665,13.83837 28.9687,0.46875 3.6595,-10.06451 -3.158,-21.56819 -14.5312,-20.46875 z m 148.1562,32.8125 c -20.6218,0.28315 -38.3888,20.02075 -36.265,40.59369 -0.6708,9.96767 0.2447,20.47565 6.765,28.50006 10.5133,14.80627 30.6593,17.49183 47.3947,14.41044 5.1385,-1.18559 13.9797,-0.79399 15.3241,-7.25419 -0.5144,-5.95097 -0.7839,-12.53913 -3.9062,-17.71875 -5.9653,-1.41023 -12.0223,2.38341 -18.1556,1.66134 -7.3191,0.30656 -16.3469,-0.3562 -20.4694,-7.41134 14.7333,-1.55673 30.0261,0.67133 44.6562,-1.5625 5.6055,-4.51317 2.7143,-13.17808 2.625,-19.34375 -1.5031,-14.93426 -12.5397,-28.94956 -27.8251,-31.16076 -3.3321,-0.67776 -6.7451,-0.84242 -10.1437,-0.71424 z m -345.5312,0.0312 c -18.9527,-0.0681 -34.7728,16.02409 -36.9688,34.34375 -3.0493,18.50187 4.8199,40.19053 23.1667,47.36834 10.5806,3.72115 22.8729,3.09734 33.3333,-0.71209 13.881,-6.90959 22.2575,-22.53301 21.0938,-38.0625 1.5822,-17.25889 -8.3635,-35.50763 -25.3125,-40.78125 -4.901,-1.68087 -10.1003,-2.37034 -15.3125,-2.15625 z m 84.1562,0.15625 c -9.7518,0.78164 -20.4795,0.35976 -29.25,5.0625 -3.2071,5.26107 -1.2554,12.42769 -2.0456,18.37465 0.2426,18.33783 -0.9889,36.92543 0.8269,55.12535 2.1785,6.68862 11.1565,3.94011 16.3125,4.1875 4.1773,-0.0285 11.13,-0.48364 10.1875,-6.4375 0.8589,-17.73501 0.465,-35.50092 0.5625,-53.25 4.8077,0.52716 13.6205,-2.04312 14.7812,4.84375 2.8826,17.19592 -0.3529,35.08548 2.5,52.1875 4.4284,4.3252 11.9099,1.71061 17.4993,2.41243 3.5898,0.21427 9.1216,-0.62979 8.657,-5.41243 0.5249,-18.34899 1.6656,-37.09517 -1.875,-55.1875 -2.7206,-13.01993 -15.3527,-21.8783 -28.4063,-21.71875 -3.2441,-0.21637 -6.5,-0.24509 -9.75,-0.1875 z m 169.1876,0.28125 c -8.5459,0.96236 -18.3629,0.13856 -25.75,5.09375 -2.87,7.12846 -1.0834,15.63911 -1.7896,23.24998 0.4343,16.79542 -1.1116,33.91752 1.0708,50.53127 2.8589,5.77493 11.1284,3.2574 16.2807,3.87452 4.5276,0.44456 10.5885,-1.31283 10.1255,-6.93702 0.9644,-17.6517 0.2405,-35.35869 0.4688,-53.03125 4.8077,0.52716 13.6205,-2.04312 14.7812,4.84375 2.8821,17.19595 -0.3517,35.08533 2.5,52.1875 4.498,4.29569 11.8715,2.0542 17.5313,3.03125 5.4522,1.04058 9.5214,-3.84562 9.0625,-9.03125 -0.039,-17.34051 0.4309,-34.94025 -2.1875,-52.09375 -2.6968,-14.01156 -17.1229,-22.75173 -30.8745,-21.6575 -3.7376,-0.15652 -7.48,-0.16806 -11.2192,-0.0612 z m -57.9376,0.8125 c -4.4054,-0.34518 -11.2066,0.56337 -11.0312,6.3125 -0.9556,23.06644 -0.9608,46.24636 0,69.3125 -0.1353,6.22214 7.4392,6.6419 12.0625,6.34375 4.7847,-0.25527 13.6409,1.29957 14.5625,-5.34375 1.4159,-22.43121 0.7315,-45.04391 0.4062,-67.53125 0.4886,-4.35368 -1.8472,-9.11497 -6.8124,-8.875 -3.0523,-0.2673 -6.1256,-0.26756 -9.1876,-0.21875 z m -673.9687,11.0625 c 6.12789,0.34382 13.29252,-0.30593 18.78125,1.40625 0.70822,10.54725 1.00053,21.50534 0,31.90625 -12.12662,0.87088 -24.8972,1.10588 -36.875,-1.25 -9.56719,-2.06313 -12.96356,-14.00441 -9.21875,-22.15625 5.30634,-9.58459 17.67159,-9.73055 27.3125,-9.90625 z m 825.4063,10.90625 c 5.068,-0.70039 9.5897,2.85976 10.8124,7.6875 -7.055,0.53768 -14.3508,0.44442 -21.4687,-0.0625 1.9337,-4.47988 5.4962,-7.95736 10.6563,-7.625 z m -345.125,1 c 8.4593,-0.55289 12.7238,9.10356 12.0312,16.375 0.4753,7.34341 -1.0679,17.61259 -9.5625,19.5 -8.008,1.90586 -14.1635,-5.70437 -14.1563,-13.09375 -0.5439,-7.82925 -0.7018,-19.34399 8.2813,-22.34375 1.1119,-0.29283 2.2546,-0.40696 3.4063,-0.4375 z"
         id="path3218"
         inkscape:connector-curvature="0" />
      <path
         style="fill:#730101"
         d="m 753.6227,616.37873 c -33.62323,-5.2276 -57.07185,-26.06672 -64.87132,-57.65206 -7.03235,-28.47873 -3.50822,-58.16235 9.53897,-80.34628 5.61914,-9.55413 19.19589,-22.84816 28.85272,-28.2519 15.30415,-8.56384 31.79318,-12.03612 52.04075,-10.95879 17.03819,0.90656 37.95495,6.5451 37.95495,10.23152 0,2.30659 -8.044,33.75627 -8.85074,34.60376 -0.35709,0.37514 -4.47426,-0.43102 -9.14926,-1.79147 -20.71154,-6.02717 -41.76472,-3.44227 -52.37937,6.43111 -4.28547,3.98618 -9.21957,12.08614 -11.75158,19.29172 -3.04224,8.6576 -3.33035,31.13984 -0.51755,40.38657 4.39085,14.43438 12.08188,23.00383 24.01349,26.75614 6.12998,1.92779 9.17747,2.22679 21.63501,2.12264 12.07242,-0.10093 16.09048,-0.54413 24,-2.64728 5.225,-1.38934 9.78695,-2.23479 10.13767,-1.87878 0.35071,0.356 1.99076,8.52228 3.64455,18.14728 2.32577,13.5359 2.73855,17.78413 1.82227,18.75434 -1.64252,1.73921 -18.26866,5.81882 -29.10449,7.14147 -11.45216,1.39787 -26.74157,1.25744 -37.01607,-0.33999 z m -194.48393,-0.12218 c -1.375,-0.24197 -5.875,-0.9391 -10,-1.54917 -32.35616,-4.78536 -49.81124,-25.60623 -47.68632,-56.88149 0.6835,-10.06001 2.72639,-16.58396 7.44179,-23.76527 11.6179,-17.69349 38.36189,-26.78905 72.74453,-24.74022 7.15,0.42606 14.8,0.82592 17,0.88858 l 4,0.11393 0.30943,-4.28964 c 0.70984,-9.84032 -5.33542,-20.90892 -13.74122,-25.15957 -10.65,-5.3855 -37.30605,-5.18993 -59.00527,0.4329 -3.4563,0.89562 -6.49201,1.42057 -6.74603,1.16656 -0.90848,-0.90848 -6.16965,-35.16371 -5.50023,-35.81176 0.89414,-0.8656 17.27293,-4.28792 28.68332,-5.99334 5.19909,-0.77706 16.81298,-1.32109 27.5,-1.28819 15.49295,0.0477 19.91674,0.40906 27.21604,2.22318 23.89531,5.93878 37.61305,19.14058 43.3503,41.71986 1.5796,6.21661 1.82191,13.53471 2.16517,65.39099 0.21719,32.81096 0.002,58.77592 -0.49217,59.26967 -1.00303,1.00303 -16.97394,4.23469 -31.73934,6.42235 -9.55184,1.41521 -50.26073,2.77264 -55.5,1.85063 z m 42.44957,-36.39179 c 1.29492,-1.07468 1.55043,-4.23704 1.55043,-19.18905 l 0,-17.9023 -2.75,-1.13894 c -1.60169,-0.66335 -9.0135,-1.17497 -17.75,-1.22525 -12.2049,-0.0702 -15.99529,0.26041 -20.34126,1.77437 -9.61268,3.34867 -15.15874,10.1018 -15.15874,18.45798 0,10.61183 6.39581,17.65621 18.34375,20.20388 6.31234,1.34599 34.21555,0.5881 36.10582,-0.98069 z m -705.44957,31.46237 c 0,-4.01608 6.513265,-27.3723 8.363591,-29.9914 4.216327,-5.96811 26.324079,-32.39699 40.414833,-48.31422 21.626575,-24.42985 43.856216,-47.80921 72.093966,-75.82266 14.72643,-14.60945 25.08648,-25.63347 24.69099,-26.2734 -0.48114,-0.77849 -14.72264,-1.10254 -48.45573,-1.10254 -26.275874,0 -48.002398,-0.22808 -48.281164,-0.50685 -0.278767,-0.27876 1.581571,-9.16626 4.134083,-19.75 l 4.640932,-19.24315 80.893289,-0.25596 c 44.49131,-0.14077 81.23047,0.0842 81.64256,0.5 0.4121,0.41578 -0.96687,7.88407 -3.06437,16.5962 l -3.81364,15.84023 -5.37967,4.65734 C 67.36507,459.39264 1.06089,526.90181 -30.056768,564.17257 c -3.892401,4.66207 -4.647985,6.13396 -3.721751,7.25 0.970214,1.16904 10.144079,1.40034 55.539729,1.40034 49.11062,0 54.37756,0.1545 54.37756,1.59516 0,1.43795 -5.56094,25.31998 -8.06939,34.65484 l -1.0077,3.75 -85.46145,0 c -75.191842,0 -85.46146,-0.17974 -85.46146,-1.49578 z m 211.61368,0.67972 c -0.68239,-1.10414 1.85887,-13.0546 4.50203,-21.1711 2.88271,-8.85213 10.94354,-24.1909 16.87521,-32.1115 10.69428,-14.28013 19.37818,-21.94468 65.5929,-57.8934 24.66373,-19.185 37.81577,-31.9496 42.26175,-41.01678 5.98047,-12.19662 5.21307,-22.36137 -2.22854,-29.51852 -4.85174,-4.66628 -9.96869,-6.47862 -18.23305,-6.45786 -12.3481,0.031 -26.62484,5.30342 -41.92202,15.48182 -4.54911,3.02687 -8.56589,5.5034 -8.92619,5.5034 -0.6817,0 -15.53577,-30.57941 -15.53577,-31.9828 0,-1.19985 16.60448,-12.30792 23.83468,-15.94494 14.62857,-7.35863 35.002,-12.05459 52.34994,-12.06637 29.37721,-0.0199 52.94058,16.01343 59.4486,40.45098 2.79022,10.47729 1.01167,30.20703 -3.71761,41.24 -7.25301,16.92058 -27.74417,36.61334 -67.91561,65.2694 -18.10376,12.9142 -27.60388,20.60022 -36.27687,29.34958 -7.72358,7.79159 -10.17588,11.14256 -9.25031,12.64017 0.43344,0.70132 16.05268,1.04398 47.5862,1.04398 36.91068,0 46.93114,0.2671 46.89492,1.25 -0.0253,0.6875 -1.95693,9.125 -4.29245,18.75 l -4.24639,17.5 -73.14453,0.25647 c -40.2295,0.14106 -73.37509,-0.11658 -73.65689,-0.57253 z m 205.63194,-109.40338 0.25438,-110.21944 7.36716,-1.23348 c 24.82062,-4.15571 73.94042,-5.25795 92.14473,-2.06772 31.15891,5.46046 52.49745,17.65662 61.71792,35.27519 5.91289,11.29841 7.70612,20.02163 7.70167,37.46489 -0.005,17.93755 -1.23311,23.99299 -7.43564,36.65033 -7.47789,15.25994 -22.89162,26.63946 -44.48395,32.84125 -14.05769,4.03768 -26.38155,5.6718 -48.01189,6.36628 l -20,0.64214 -0.26217,37.25 -0.26217,37.25 -24.49222,0 -24.49221,0 0.25439,-110.21944 z m 83.30385,-6.85072 c 15.70491,-2.18436 26.04156,-6.92045 30.98646,-14.19753 5.83141,-8.58169 6.951,-24.14049 2.48183,-34.48959 -3.66241,-8.48092 -12.32301,-14.61332 -24.51776,-17.36056 -6.39259,-1.44013 -38.61182,-1.9522 -41.75,-0.66355 -1.61659,0.66384 -1.75,3.22403 -1.75,33.58334 0,18.07559 0.3,33.16472 0.66667,33.53138 1.06186,1.06187 25.43395,0.77163 33.8828,-0.40349 z m 459.69653,-4.16511 0.254,-121.23526 22.3474,-3.59258 c 15.0571,-2.42056 22.4793,-3.24094 22.7515,-2.51473 0.2222,0.59281 0.5158,32.12171 0.6525,70.06422 0.2178,60.43668 0.4345,69.01197 1.7486,69.19283 1.5799,0.21745 16.5895,-16.27741 39.5187,-43.42921 l 13.7229,-16.25 26.8792,0 c 14.7836,0 26.87923,0.27293 26.87923,0.6065 0,1.09405 -28.81253,33.49035 -47.34553,53.23446 -9.985,10.63753 -18.3102,19.76726 -18.5006,20.2883 -0.1904,0.52103 2.9689,4.4176 7.0206,8.65903 14.8432,15.53843 33.6844,39.58303 46.0061,58.71171 6.55403,10.17463 15.81943,25.96121 15.81943,26.95341 0,0.30062 -12.1034,0.54659 -26.89653,0.54659 l -26.8965,0 -4.7813,-7.75 c -20.3704,-33.01814 -47.2546,-66.68086 -51.8463,-64.91883 -1.3988,0.53674 -1.5794,4.7272 -1.5794,36.63745 l 0,36.03138 -23.004,0 -23.004,0 0.254,-121.23527 z m 196.25403,120.2012 c -19.1118,-3.89375 -30.941,-23.22591 -27.5571,-45.03581 2.5947,-16.72351 13.157,-28.07137 28.7424,-30.88 15.957,-2.87561 32.3246,5.47559 38.3692,19.57696 4.7779,11.14634 4.57,26.93549 -0.5006,38.0283 -6.3467,13.88437 -22.8349,21.61493 -39.0539,18.31055 z m 15.5151,-18.21593 c 5.5949,-3.80215 7.4849,-8.78913 7.4849,-19.75 0,-7.68756 -0.3982,-10.26313 -2.087,-13.5 -5.9776,-11.45687 -21.1627,-11.44942 -26.913,0.0132 -2.9168,5.81431 -2.8668,21.3255 0.087,26.9868 2.8962,5.55091 7.5498,8.5 13.413,8.5 3.2308,0 5.7413,-0.70474 8.0151,-2.25 z m 331.5792,18.24165 c -6.7033,-1.18933 -16.8943,-6.37452 -20.1924,-10.27392 -6.8867,-8.14215 -10.4173,-22.20002 -8.5645,-34.101 3.0439,-19.55168 16.2528,-31.92268 34.1626,-31.99541 14.1196,-0.0573 25.1801,6.39622 29.9448,17.47206 2.4826,5.77079 4.6895,20.2434 3.6926,24.2153 l -0.6755,2.69132 -23.5123,0 c -26.3162,0 -26.1853,-0.0387 -22.7512,6.74008 1.3663,2.69698 3.4451,4.56055 7.3532,6.59195 5.847,3.03923 4.4184,2.97048 28.9484,1.39304 l 3.5,-0.22507 0.8725,6.79421 c 0.4798,3.73681 0.6131,7.05356 0.2961,7.37056 -2.4745,2.4745 -25.0689,4.74723 -33.0743,3.32688 z m 20.0449,-46.49389 c 0.978,-2.54861 -0.5507,-6.43059 -4.0256,-10.22232 -2.9751,-3.24642 -3.9421,-3.66666 -9.2187,-4.00629 -7.3872,-0.47549 -11.4886,1.81182 -14.5509,8.11509 -3.55,7.30688 -3.0164,7.61576 13.156,7.61576 11.5871,0 14.1643,-0.26447 14.6392,-1.50224 z M 1220.9294,610.742 c -10.4851,-1.53716 -17.8921,-7.12013 -19.5008,-14.69853 -0.4344,-2.04631 -0.7898,-23.73517 -0.7898,-48.19747 l 0,-44.47692 7,-1.21163 c 3.85,-0.6664 8.2375,-1.23929 9.75,-1.27309 l 2.75,-0.0615 0.015,43.25 c 0.011,32.28334 0.328,43.88391 1.25,45.75 0.6794,1.375 3.163,3.4 5.5191,4.5 l 4.2839,2 -0.6289,5.43493 c -0.7022,6.06818 -1.9939,10.12731 -3.164,9.94313 -0.4262,-0.0671 -3.344,-0.49861 -6.4842,-0.95897 z m -105.0891,-0.5509 c -0.3858,-0.38584 -0.7015,-16.38766 -0.7015,-35.55961 l 0,-34.85808 2.25,-0.84875 c 5.0308,-1.89771 17.8871,-3.46513 28.25,-3.44417 13.7692,0.0279 20.5867,2.28918 26.0128,8.62838 6.1845,7.22523 6.9605,11.75523 6.9747,40.71404 l 0.013,25.5 -9.5,0 -9.5,0 -0.5,-25.5 c -0.5297,-27.01284 -0.7137,-28.05641 -5.6285,-31.92245 -2.0815,-1.63685 -4.072,-2.07755 -9.3844,-2.07755 -4.399,0 -7.1273,0.46346 -7.8493,1.33336 -0.737,0.888 -1.1954,10.8247 -1.3724,29.75 l -0.2659,28.41664 -9.0485,0.28486 c -4.9766,0.15667 -9.3641,-0.0308 -9.75,-0.41667 z m 130.7685,-0.58568 c -0.2729,-0.71114 -0.3778,-17.26563 -0.2331,-36.78775 l 0.2631,-35.49476 9.5,0 9.5,0 0,36.5 0,36.5 -9.2669,0.28775 c -6.8691,0.21329 -9.3953,-0.0468 -9.7631,-1.00524 z m 42.2315,0.58568 c -0.3858,-0.38584 -0.7015,-16.38766 -0.7015,-35.55961 l 0,-34.85808 2.5697,-0.97699 c 4.9751,-1.89154 17.0486,-3.3213 27.9303,-3.30757 13.7677,0.0174 20.5821,2.27554 26.0128,8.62002 6.1845,7.22523 6.9605,11.75523 6.9747,40.71404 l 0.013,25.5 -9.5,0 -9.5,0 -0.5,-25.5 c -0.5297,-27.01284 -0.7137,-28.05641 -5.6285,-31.92245 -2.0757,-1.63274 -4.0575,-2.07427 -9.2564,-2.06224 -3.6383,0.008 -7.1706,0.36813 -7.8494,0.79934 -0.9223,0.58582 -1.3015,8.10262 -1.5,29.73469 l -0.2662,28.95066 -9.0485,0.28486 c -4.9766,0.15667 -9.3641,-0.0308 -9.75,-0.41667 z m -37.2015,-85.73172 c -5.0268,-2.28421 -7,-5.28245 -7,-10.63647 0,-13.95604 19.9814,-15.74371 22.9876,-2.05663 1.8663,8.4976 -7.9935,16.32567 -15.9876,12.6931 z"
         id="path3216"
         inkscape:connector-curvature="0" />
      <path
         style="fill:#010101"
         d="m 753.6227,616.37873 c -33.62323,-5.2276 -57.07185,-26.06672 -64.87132,-57.65206 -7.03235,-28.47873 -3.50822,-58.16235 9.53897,-80.34628 5.61914,-9.55413 19.19589,-22.84816 28.85272,-28.2519 15.30415,-8.56384 31.79318,-12.03612 52.04075,-10.95879 17.03819,0.90656 37.95495,6.5451 37.95495,10.23152 0,2.30659 -8.044,33.75627 -8.85074,34.60376 -0.35709,0.37514 -4.47426,-0.43102 -9.14926,-1.79147 -20.71154,-6.02717 -41.76472,-3.44227 -52.37937,6.43111 -4.28547,3.98618 -9.21957,12.08614 -11.75158,19.29172 -3.04224,8.6576 -3.33035,31.13984 -0.51755,40.38657 4.39085,14.43438 12.08188,23.00383 24.01349,26.75614 6.12998,1.92779 9.17747,2.22679 21.63501,2.12264 12.07242,-0.10093 16.09048,-0.54413 24,-2.64728 5.225,-1.38934 9.78695,-2.23479 10.13767,-1.87878 0.35071,0.356 1.99076,8.52228 3.64455,18.14728 2.32577,13.5359 2.73855,17.78413 1.82227,18.75434 -1.64252,1.73921 -18.26866,5.81882 -29.10449,7.14147 -11.45216,1.39787 -26.74157,1.25744 -37.01607,-0.33999 z m -194.48393,-0.12218 c -1.375,-0.24197 -5.875,-0.9391 -10,-1.54917 -32.35616,-4.78536 -49.81124,-25.60623 -47.68632,-56.88149 0.6835,-10.06001 2.72639,-16.58396 7.44179,-23.76527 11.6179,-17.69349 38.36189,-26.78905 72.74453,-24.74022 7.15,0.42606 14.8,0.82592 17,0.88858 l 4,0.11393 0.30943,-4.28964 c 0.70984,-9.84032 -5.33542,-20.90892 -13.74122,-25.15957 -10.65,-5.3855 -37.30605,-5.18993 -59.00527,0.4329 -3.4563,0.89562 -6.49201,1.42057 -6.74603,1.16656 -0.90848,-0.90848 -6.16965,-35.16371 -5.50023,-35.81176 0.89414,-0.8656 17.27293,-4.28792 28.68332,-5.99334 5.19909,-0.77706 16.81298,-1.32109 27.5,-1.28819 15.49295,0.0477 19.91674,0.40906 27.21604,2.22318 23.89531,5.93878 37.61305,19.14058 43.3503,41.71986 1.5796,6.21661 1.82191,13.53471 2.16517,65.39099 0.21719,32.81096 0.002,58.77592 -0.49217,59.26967 -1.00303,1.00303 -16.97394,4.23469 -31.73934,6.42235 -9.55184,1.41521 -50.26073,2.77264 -55.5,1.85063 z m 42.44957,-36.39179 c 1.29492,-1.07468 1.55043,-4.23704 1.55043,-19.18905 l 0,-17.9023 -2.75,-1.13894 c -1.60169,-0.66335 -9.0135,-1.17497 -17.75,-1.22525 -12.2049,-0.0702 -15.99529,0.26041 -20.34126,1.77437 -9.61268,3.34867 -15.15874,10.1018 -15.15874,18.45798 0,10.61183 6.39581,17.65621 18.34375,20.20388 6.31234,1.34599 34.21555,0.5881 36.10582,-0.98069 z m -288.20395,-77.26129 0.25438,-110.21944 7.36716,-1.23348 c 24.82062,-4.15571 73.94042,-5.25795 92.14473,-2.06772 31.15891,5.46046 52.49745,17.65662 61.71792,35.27519 5.91289,11.29841 7.70612,20.02163 7.70167,37.46489 -0.005,17.93755 -1.23311,23.99299 -7.43564,36.65033 -7.47789,15.25994 -22.89162,26.63946 -44.48395,32.84125 -14.05769,4.03768 -26.38155,5.6718 -48.01189,6.36628 l -20,0.64214 -0.26217,37.25 -0.26217,37.25 -24.49222,0 -24.49221,0 0.25439,-110.21944 z m 83.30385,-6.85072 c 15.70491,-2.18436 26.04156,-6.92045 30.98646,-14.19753 5.83141,-8.58169 6.951,-24.14049 2.48183,-34.48959 -3.66241,-8.48092 -12.32301,-14.61332 -24.51776,-17.36056 -6.39259,-1.44013 -38.61182,-1.9522 -41.75,-0.66355 -1.61659,0.66384 -1.75,3.22403 -1.75,33.58334 0,18.07559 0.3,33.16472 0.66667,33.53138 1.06186,1.06187 25.43395,0.77163 33.8828,-0.40349 z m 459.69653,-4.16511 0.254,-121.23526 22.3474,-3.59258 c 15.0571,-2.42056 22.4793,-3.24094 22.7515,-2.51473 0.2222,0.59281 0.5158,32.12171 0.6525,70.06422 0.2178,60.43668 0.4345,69.01197 1.7486,69.19283 1.5799,0.21745 16.5895,-16.27741 39.5187,-43.42921 l 13.7229,-16.25 26.8792,0 c 14.7836,0 26.87923,0.27293 26.87923,0.6065 0,1.09405 -28.81253,33.49035 -47.34553,53.23446 -9.985,10.63753 -18.3102,19.76726 -18.5006,20.2883 -0.1904,0.52103 2.9689,4.4176 7.0206,8.65903 14.8432,15.53843 33.6844,39.58303 46.0061,58.71171 6.55403,10.17463 15.81943,25.96121 15.81943,26.95341 0,0.30062 -12.1034,0.54659 -26.89653,0.54659 l -26.8965,0 -4.7813,-7.75 c -20.3704,-33.01814 -47.2546,-66.68086 -51.8463,-64.91883 -1.3988,0.53674 -1.5794,4.7272 -1.5794,36.63745 l 0,36.03138 -23.004,0 -23.004,0 0.254,-121.23527 z"
         id="path3214"
         inkscape:connector-curvature="0" />
    </g>
  </g>
</svg>
